<?xml version="1.0" encoding="utf-8"?>
<!-- Generator: Adobe Illustrator 18.1.0, SVG Export Plug-In . SVG Version: 6.00 Build 0)  -->
<svg version="1.1" id="Layer_1" xmlns="http://www.w3.org/2000/svg" xmlns:xlink="http://www.w3.org/1999/xlink" x="0px" y="0px"
	 viewBox="0 0 500 500" enable-background="new 0 0 500 500" xml:space="preserve">
<path fill="none" stroke="#000000" stroke-miterlimit="10" d="M422.7,444c-65.7-21.6-136.5-20.9-204.3-34.5
	c-12.7-2.6-25.5-5.7-37.1-11.5c-25.1-12.7-42-36.8-57.9-59.9c-5.8-8.5-11.9-18.6-9-28.4c2.2-7.3,8.9-12.3,15.7-15.9
	c42.3-22.3,94.3-7.1,141.2-16.3c16.5-3.2,32.4-9.5,46.6-18.5c8.1-5.1,15.8-11.2,21.1-19.2c9.9-14.9,10-35.2,1.6-51
	s-24.4-26.8-41.9-30.6c-30.4-6.6-64.2,7.2-92.2-6.3c-13.8-6.7-23.9-19.1-34.5-30.1s-23.7-21.6-39-22.5c-11-0.7-21.7,3.7-31.1,9.4
	c-24,14.6-41.9,38-53.2,63.7S32.3,226.3,30,254.3c-1.1,13.4-1.6,27.2,2.5,40c5.2,16.1,17.1,29.1,28.7,41.4"/>
</svg>
