<?xml version="1.0" encoding="utf-8"?>
<!-- Generator: Adobe Illustrator 18.1.0, SVG Export Plug-In . SVG Version: 6.00 Build 0)  -->
<svg version="1.1" id="Layer_1" xmlns="http://www.w3.org/2000/svg" xmlns:xlink="http://www.w3.org/1999/xlink" x="0px" y="0px"
	 viewBox="0 0 500 500" enable-background="new 0 0 500 500" xml:space="preserve">
<path fill="none" stroke="#000000" stroke-miterlimit="10" d="M174.9,57.3c0.3-8.4,167.6,9.8,179.8,16.1c14.1,7.3-9.4,18.2-2.1,32.4
	S230.2,173.1,215,173.1c1.6,7.7,84.7,133.8,100.9,129.9s34-4.7,48.6,3.2c19.8,10.6,28.7,34.1,32.7,56.2c2.3,12.9,3.5,25.9,3.6,39
	c0,3.5-0.2,7.2-2.4,9.9c-2.9,3.4-7.9,3.6-12.3,3.7c-28.9,0.8-56.9,10-85.5,13.7c-55.7,7.3-113.8-6.7-160.2-38.4"/>
</svg>
