<?xml version="1.0" encoding="utf-8"?>
<!-- Generator: Adobe Illustrator 18.1.0, SVG Export Plug-In . SVG Version: 6.00 Build 0)  -->
<svg version="1.1" id="Layer_1" xmlns="http://www.w3.org/2000/svg" xmlns:xlink="http://www.w3.org/1999/xlink" x="0px" y="0px"
	 viewBox="0 0 100 100" enable-background="new 0 0 100 100" xml:space="preserve">
<path fill="none" stroke="#000000" stroke-miterlimit="10" d="M40.5,15.7c-5.6,3.6-10.7,8.1-15.1,13.1c-0.6,0.7-1.3,1.5-1.6,2.5
	c-0.8,2.4,0.5,4.9,2.2,6.8c3.2,3.5,7.7,5.5,12.3,6.3s9.4,0.5,14-0.2c-0.9,3.5-4.3,5.5-7.2,7.7c-4.9,3.8-8.6,8.9-11.8,14.2
	c-2,3.2-3.8,6.6-6.5,9.3s-6.6,4.5-10.3,3.7c6.4-3.8,12.6-8,18.5-12.5c3.7-2.8,7.3-5.8,11.4-8.1c4-2.3,8.6-4,13.2-3.9
	c4.7,0.1,9.2,1.9,13.2,4.4c1.3,0.8,2.6,1.7,4.1,1.9s3.3-0.7,3.5-2.3c0.1-0.8-0.2-1.5-0.6-2.2c-2.1-3.9-5.3-7.1-8.2-10.5
	c-2.9-3.4-5.5-7.3-5.8-11.7"/>
</svg>
