<?xml version="1.0" encoding="utf-8"?>
<!-- Generator: Adobe Illustrator 18.1.0, SVG Export Plug-In . SVG Version: 6.00 Build 0)  -->
<svg version="1.1" id="Layer_1" xmlns="http://www.w3.org/2000/svg" xmlns:xlink="http://www.w3.org/1999/xlink" x="0px" y="0px"
	 viewBox="0 0 500 500" enable-background="new 0 0 500 500" xml:space="preserve">
<path fill="none" stroke="#000000" stroke-miterlimit="10" d="M326.6,58.9c0.3,7.6-7.5,12.8-14.4,16.1c-11.4,5.6-23,11-34.5,16.3
	c-60.5,27.7-125.5,55-191.4,45.5c-1.9-0.3-4.2-1.2-4-3.1c-1.2,12.2,1.1,24.7,6.6,35.6c2.5,5,5.9,9.8,10.7,12.6
	c4.6,2.7,10,3.3,15.2,3.8c12.3,1,24.7,1.2,37,0.4c14.3-0.9,28.7-3.1,42.7-0.5c10.1,1.9,19.6,6.1,29.1,10
	c21.1,8.6,42.9,15.8,65.1,21.3c19.2,4.8,39.3,8.6,55.7,19.7c10.5,7.1,19,16.9,29.6,23.9c12.6,8.3,28,12.3,43,11.2
	c-0.6,18.3-14.8,33.8-30.9,42.6c-16.1,8.8-34.4,12.6-51.6,18.9c-12.6,4.6-25.1,10.6-38.5,11.5c-6.4,0.4-12.9-0.3-19,1.7
	c-4.5,1.5-8.3,4.4-12,7.2c-6.7,5.1-13.3,10.2-20,15.2c-8.3,6.3-17.5,14.7-16.1,25c0.6,4.5,3.3,8.4,6.4,11.7
	c17.6,18.5,46.7,17.5,72.1,15.3"/>
</svg>
