<?xml version="1.0" encoding="utf-8"?>
<!-- Generator: Adobe Illustrator 18.1.0, SVG Export Plug-In . SVG Version: 6.00 Build 0)  -->
<svg version="1.2" baseProfile="tiny" id="Layer_1" xmlns="http://www.w3.org/2000/svg" xmlns:xlink="http://www.w3.org/1999/xlink"
	 x="0px" y="0px" viewBox="0 0 500 500" xml:space="preserve">
<polyline fill="#FFFFFF" stroke="#000000" stroke-miterlimit="10" points="247.1000061,50.4000015 260.2999878,50.4000015 
	281.1000061,52.5 301.6000061,56.9000015 321.5,63.4000015 340.6000061,71.9000015 358.7000122,82.3000031 375.7000122,94.5999985 
	391.2000122,108.6999969 405.2999878,124.1999969 417.6000061,141.1000061 428,159.3000031 436.5,178.3999939 443,198.3000031 
	447.3999939,218.8000031 449.5,239.6000061 449.5,260.5 447.3999939,281.3999939 443,301.7999878 436.5,321.7000122 
	428,340.8999939 417.6000061,359 405.2999878,375.8999939 391.1999817,391.5 375.6999817,405.5 358.7000122,417.7999878 
	340.6000061,428.2999878 321.5,436.7999878 301.6000061,443.2999878 281.1000061,447.6000061 260.2999878,449.7999878 
	239.3999786,449.7999878 218.4999847,447.6000061 198.0999908,443.2999878 178.0999908,436.7999878 158.9999847,428.2999878 
	140.8999786,417.7999878 123.9999924,405.5 108.3999863,391.5 94.3999863,375.8999939 82.0999985,359 71.5999985,340.8999939 
	63.0999985,321.7000122 56.5999985,301.7999878 52.3000107,281.3999939 50.0999985,260.5 50.0999985,239.6000061 
	52.3000107,218.8000031 56.5999985,198.3000031 63.0999985,178.3999939 71.5999985,159.3000031 82.0999985,141.1000061 
	94.3999863,124.1999969 108.3999863,108.6999969 123.9999924,94.5999985 140.8999939,82.3000031 159,71.9000015 
	178.1000061,63.4000015 198.1000061,56.9000015 218.5,52.5 239.3999939,50.4000015 247.1000061,50.4000015 "/>
</svg>
