<?xml version="1.0" encoding="utf-8"?>
<!-- Generator: Adobe Illustrator 18.1.0, SVG Export Plug-In . SVG Version: 6.00 Build 0)  -->
<svg version="1.1" id="Layer_1" xmlns="http://www.w3.org/2000/svg" xmlns:xlink="http://www.w3.org/1999/xlink" x="0px" y="0px"
	 viewBox="0 0 500 500" enable-background="new 0 0 500 500" xml:space="preserve">
<path fill="none" stroke="#000000" stroke-miterlimit="10" d="M270.3,127.1c-0.3-8.4-7.3-15-14.2-19.8
	c-22.5-15.6-49.9-23.3-77.3-23.7c-13.8-0.2-27.9,1.5-40.2,7.8c-14.1,7.3-24.7,20.2-32,34.4s-11.4,29.6-15.6,45
	c85.7,6.4,171.8,6.3,257.8,6.2c15.1,0,30.3,0,45.4-0.1c-1.6,8-7.5,14.3-13,20.2c-35.9,38.9-66.8,82.3-91.9,128.8
	c-1.3,2.3-2.6,4.8-4.8,6.3c-1.4,0.9-3.1,1.4-4.8,1.8c-17.8,4.4-36.6,4.7-54.6,0.9c-16.2-3.4-31.6-10.1-47.8-14s-34-4.7-48.6,3.2
	c-19.8,10.6-28.7,34.1-32.7,56.2c-2.3,12.9-3.5,25.9-3.6,39c0,3.5,0.2,7.2,2.4,9.9c2.9,3.4,7.9,3.6,12.3,3.7
	c28.9,0.8,56.9,10,85.5,13.7c55.7,7.3,113.8-6.7,160.2-38.4"/>
</svg>
