<?xml version="1.0" encoding="utf-8"?>
<!-- Generator: Adobe Illustrator 18.1.0, SVG Export Plug-In . SVG Version: 6.00 Build 0)  -->
<svg version="1.1" id="Layer_1" xmlns="http://www.w3.org/2000/svg" xmlns:xlink="http://www.w3.org/1999/xlink" x="0px" y="0px"
	 viewBox="0 0 500 500" enable-background="new 0 0 500 500" xml:space="preserve">
<path fill="none" stroke="#000000" stroke-miterlimit="10" d="M76.7,131.9c-8.1,40.5-12.1,81.9-12,123.2c0,6,0.2,12.4,3.1,17.6
	c5.2,9.3,17,12.4,27.6,13c28,1.6,56-7.6,79.1-23.3c23.2-15.7,41.7-37.6,56-61.7c9.9-16.7,18.1-35.4,17.6-54.9
	c-0.4-14.5-5.5-28.3-9.6-42.2c-0.4-1.3-0.8-2.7-0.3-4c0.8-2.5,3.9-3.2,6.5-3.1c11.4,0.7,19.7,10.9,26.4,20.2
	c34,47.3,68.1,94.6,98.6,144.2c8.5,13.7,16.7,31.4,8,45c-4.7,7.4-13.3,11.3-21.5,14.2c-54.4,19.6-114.6,17.2-169.8,34.3
	c9.3,10.9,9.7,26.5,10.9,40.7c1.2,14.3,4.8,30.3,17.3,37.4c18.5,10.5,42-6.1,62.8-1.3c9.4,2.2,17.3,8.5,26.3,12.2
	c13.2,5.4,27.9,4.8,42.2,4.2c9.9-0.5,20.8-1.4,27.6-8.6c2.5-2.6,5.1-6.3,8.6-5.5"/>
</svg>
