<?xml version="1.0" encoding="utf-8"?>
<!-- Generator: Adobe Illustrator 18.1.0, SVG Export Plug-In . SVG Version: 6.00 Build 0)  -->
<svg version="1.1" id="Layer_1" xmlns="http://www.w3.org/2000/svg" xmlns:xlink="http://www.w3.org/1999/xlink" x="0px" y="0px"
	 viewBox="0 0 500 500" enable-background="new 0 0 500 500" xml:space="preserve">
<path fill="none" stroke="#000000" stroke-miterlimit="10" d="M462.4,119.7c-63.9,8.3-127.9,16.5-191.8,24.8
	c-24.8,3.2-50.3,6.6-72.1,18.8c-15.8,8.8-28.8,21.7-41.6,34.5c-29.8,29.7-59.8,59.7-83.7,94.3c-4,5.9-8,12.1-8.9,19.2
	c-0.9,7.1,2.4,15.1,9,17.6c7.9,3,16.2-2.7,22.8-8c23.7-19.2,47.5-38.4,71.2-57.6c16.9-13.7,34.1-27.5,54.1-36.2s43.4-11.7,63.4-3.1
	c1.8,0.8,3.7,1.7,4.7,3.5c1.4,2.6,0.3,5.7-1,8.4c-9.8,20.1-26.3,35.9-41.9,51.9s-31.1,33.2-38.2,54.4c-7,21.2-3.3,47.5,14.3,61.2
	c-3.1,12.8-13.5,23.5-26.2,27.1c-8.6,2.4-17.6,1.7-26.5,0.7c-22.5-2.4-44.8-6.2-66.8-11.4"/>
</svg>
